<?xml version="1.0" encoding="UTF-8"?>
<!DOCTYPE svg PUBLIC "-//W3C//DTD SVG 1.1//EN" "http://www.w3.org/Graphics/SVG/1.1/DTD/svg11.dtd">
<!-- Creator: CorelDRAW X7 -->
<svg xmlns="http://www.w3.org/2000/svg" xml:space="preserve" width="57.3281mm" height="52.2857mm" version="1.1" style="shape-rendering:geometricPrecision; text-rendering:geometricPrecision; image-rendering:optimizeQuality; fill-rule:evenodd; clip-rule:evenodd"
viewBox="0 0 485 442"
 xmlns:xlink="http://www.w3.org/1999/xlink">
 <defs>
  <style type="text/css">
   <![CDATA[
    .fil0 {fill:#1A5531}
   ]]>
  </style>
 </defs>
 <g id="Layer_x0020_1">
  <metadata id="CorelCorpID_0Corel-Layer"/>
  <g id="_676742400">
   <path class="fil0" d="M76 203c0,-14 4,-18 4,-24 -25,12 -40,24 -56,45 -28,40 -32,102 -10,145 8,17 10,19 23,35 0,0 0,0 0,0 0,0 0,1 1,1 4,5 11,11 16,15 16,11 32,18 52,21 5,0 12,1 16,1 4,0 14,-1 17,-1 4,-1 13,-1 15,-4 -5,-1 -42,-26 -48,-31l-1 -1c0,0 0,0 0,0l-8 -7c-9,-9 -11,-10 -18,-19l-5 -7c-3,-5 -6,-9 -8,-16 -2,-5 -6,-11 -6,-18 3,1 6,6 7,8 7,9 10,12 16,19 6,6 14,15 21,20 6,5 19,16 26,19 12,6 16,9 31,14 24,8 43,11 70,8 5,-1 13,-2 13,-9 0,-12 -14,-6 -19,-5 -12,1 -34,1 -42,-3 0,-4 2,-9 4,-14 5,-24 -1,-37 -12,-56l-8 -10c-6,-7 -11,-13 -17,-19l-5 -4c-4,-4 3,3 -1,-1l-31 -30c-2,-2 -3,-3 -4,-5 -2,-2 -3,-2 -4,-4 -2,-2 -3,-3 -5,-5 -14,-18 -24,-34 -24,-58z"/>
   <path class="fil0" d="M114 141l15 -19c14,-19 33,-38 52,-51 9,-5 28,-14 41,-14 -1,3 -4,4 -9,7 -8,5 -24,16 -31,23l-9 8c-3,3 -3,1 -8,7 0,0 0,1 0,1l-3 3c-19,19 -31,46 -39,72 -2,7 -10,55 4,55 6,0 8,-4 7,-11 -1,-13 0,-21 2,-34 1,-6 4,-10 4,-16 2,1 5,2 7,3 32,15 61,2 86,-19 2,-1 2,-2 4,-4l19 -15c2,-2 3,-3 4,-4l28 -23c1,-2 3,-3 4,-4 20,-14 47,-26 74,-19 4,1 9,4 13,4 -2,-3 -3,-6 -4,-9 -5,-11 -8,-16 -15,-26 -5,-8 -12,-15 -19,-21 -21,-20 -58,-35 -88,-35 -35,0 -41,1 -70,13 -13,6 -25,15 -35,24 -2,2 -2,2 -4,4l-8 9c-21,25 -25,57 -22,91z"/>
   <path class="fil0" d="M434 235c5,29 8,60 -6,88 -1,3 -3,10 -7,11 0,-3 1,-6 1,-9 4,-29 3,-63 -4,-90l-8 -24 -22 -36c-6,-8 -28,-29 -35,-29 -5,0 -7,3 -7,8 0,5 6,7 10,11 8,6 28,26 29,34 -3,0 -2,0 -5,1 -5,3 -4,2 -11,7 -49,33 -21,119 -33,170 -4,20 -14,39 -31,50 -7,4 -9,3 -10,7 4,0 6,1 9,2 7,2 19,4 26,5 45,6 90,-17 119,-49l11 -15c1,-1 2,-2 2,-4l17 -36c10,-36 8,-70 -13,-102 -7,-11 -31,-36 -40,-38l8 38z"/>
  </g>
 </g>
</svg>
